<?xml version="1.0" standalone="no"?><!DOCTYPE svg PUBLIC "-//W3C//DTD SVG 1.1//EN" "http://www.w3.org/Graphics/SVG/1.1/DTD/svg11.dtd"><svg t="1650616219655" class="icon" viewBox="0 0 1024 1024" version="1.1" xmlns="http://www.w3.org/2000/svg" p-id="4238" xmlns:xlink="http://www.w3.org/1999/xlink" width="200" height="200"><defs><style type="text/css">@font-face { font-family: feedback-iconfont; src: url("//at.alicdn.com/t/font_1031158_u69w8yhxdu.woff2?t=1630033759944") format("woff2"), url("//at.alicdn.com/t/font_1031158_u69w8yhxdu.woff?t=1630033759944") format("woff"), url("//at.alicdn.com/t/font_1031158_u69w8yhxdu.ttf?t=1630033759944") format("truetype"); }
</style></defs><path d="M513 511.5m-344.4 0a344.4 344.4 0 1 0 688.8 0 344.4 344.4 0 1 0-688.8 0Z" fill="#D6B0F7" p-id="4239"></path><path d="M513 864.5c-94.3 0-182.9-36.7-249.6-103.4C196.7 694.5 160 605.8 160 511.5s36.7-182.9 103.4-249.6S418.7 158.5 513 158.5s182.9 36.7 249.6 103.4C829.3 328.6 866 417.2 866 511.5s-36.7 182.9-103.4 249.6C695.9 827.8 607.3 864.5 513 864.5z m0-688.8c-89.7 0-174 34.9-237.4 98.4-63.4 63.4-98.4 147.7-98.4 237.4 0 89.7 34.9 174 98.4 237.4 63.4 63.4 147.7 98.4 237.4 98.4 89.7 0 174-34.9 237.4-98.4s98.4-147.7 98.4-237.4c0-89.7-34.9-174-98.4-237.4-63.4-63.4-147.7-98.4-237.4-98.4z" fill="#050405" p-id="4240"></path><path d="M533.2 811c-4.5 0-8.3-3.5-8.6-8-0.3-4.7 3.3-8.8 8-9.2 15.4-1.1 30.9-3.4 45.9-6.9 4.6-1.1 9.3 1.8 10.4 6.4 1.1 4.6-1.8 9.3-6.4 10.4-15.9 3.8-32.3 6.2-48.7 7.4-0.2-0.1-0.4-0.1-0.6-0.1zM653.3 775.8c-3 0-6-1.6-7.5-4.5-2.3-4.2-0.8-9.4 3.4-11.7 51.7-28.4 92.7-71.5 118.5-124.5 2.1-4.3 7.2-6.1 11.5-4 4.3 2.1 6.1 7.2 4 11.5-27.4 56.2-70.8 101.9-125.6 132-1.5 0.9-2.9 1.2-4.3 1.2z" fill="#050405" p-id="4241"></path><path d="M456 510.1v132.4c0 11 8.9 20 20 20h70.7c11 0 20-8.9 20-20V510.1H623L529.2 370c-8.4-12.8-27.2-12.8-35.6 0l-93.8 140.1H456z" fill="#D6B0F7" p-id="4242"></path><path d="M546.7 670.5H476c-15.4 0-28-12.5-28-28V518.1h-48.3c-3 0-5.7-1.6-7.1-4.2-1.4-2.6-1.2-5.8 0.4-8.2l93.8-140.1c5.4-8.2 14.6-13.1 24.4-13.1 9.9 0 19 4.9 24.5 13.2l93.8 140c1.6 2.5 1.8 5.6 0.4 8.2s-4.1 4.2-7.1 4.2h-48.3v124.4c0.1 15.5-12.4 28-27.8 28z m-132-168.4H456c4.4 0 8 3.6 8 8v132.4c0 6.6 5.4 12 12 12h70.7c6.6 0 12-5.4 12-12V510.1c0-4.4 3.6-8 8-8H608l-85.5-127.6c-2.5-3.8-6.6-6-11.2-6s-8.6 2.2-11.1 6l-85.5 127.6z" fill="#050405" p-id="4243"></path></svg>